<svg width="250" height="240" viewBox="0 0 250 240" fill="none" xmlns="http://www.w3.org/2000/svg">
<g clip-path="url(#clip0_0_3)">
<rect width="250" height="240" fill="white"/>
<path d="M64.2206 21.4132C64.9908 14.8663 70.5396 9.93222 77.1317 9.93222L82.7779 9.93239C89.3123 9.93243 94.8315 14.7826 95.6704 21.2629L96.5449 28.0256C102.11 29.9297 107.344 32.8433 111.944 36.6886L117.919 34.1166C123.974 31.5094 131.022 33.8475 134.318 39.5568L137.141 44.4451C140.408 50.1048 138.966 57.3106 133.772 61.2769L128.559 65.2567C129.598 70.9939 129.576 76.8138 128.567 82.4419L133.334 85.9955C138.619 89.9357 140.118 97.2087 136.822 102.918L134 107.806C130.732 113.466 123.771 115.82 117.739 113.305L112.126 110.965C109.964 112.787 107.612 114.445 105.077 115.909C102.482 117.407 99.8061 118.637 97.0815 119.609L96.2963 125.685C95.4583 132.166 89.9387 137.018 83.4035 137.018L77.7595 137.018C71.1668 137.018 65.6178 132.083 64.8482 125.535L64.1315 119.441C58.8337 117.501 53.858 114.637 49.4689 110.919L43.4164 113.444C37.3845 115.959 30.4232 113.605 27.1555 107.945L24.3332 103.057C21.037 97.3474 22.5362 90.0745 27.8217 86.1342L33.0355 82.2468C32.0188 76.4178 32.096 70.5073 33.1878 64.8056L27.6198 60.552C22.4271 56.5854 20.9858 49.381 24.2527 43.7219L27.0764 38.8316C30.3725 33.1227 37.4199 30.7843 43.4749 33.3908L50.2036 36.2875C52.1778 34.6845 54.3042 33.2164 56.5768 31.9043C58.7882 30.6276 61.0586 29.5452 63.3678 28.6511L64.2206 21.4132ZM71.5768 57.8851C62.7284 62.9937 59.6968 74.3082 64.8053 83.1566C69.914 92.005 81.2284 95.0367 90.0768 89.928C98.9252 84.8194 101.957 73.505 96.8483 64.6566C91.7396 55.8082 80.4252 52.7765 71.5768 57.8851Z" fill="black"/>
<path d="M148.883 114.347C149.654 107.8 155.202 102.866 161.795 102.866L167.441 102.866C173.975 102.866 179.494 107.716 180.333 114.197L181.208 120.96C186.773 122.864 192.007 125.777 196.607 129.623L202.582 127.051C208.637 124.443 215.685 126.781 218.981 132.491L221.804 137.379C225.071 143.039 223.629 150.244 218.435 154.211L213.222 158.191C214.261 163.928 214.239 169.748 213.229 175.376L217.996 178.929C223.282 182.87 224.781 190.143 221.485 195.852L218.663 200.74C215.395 206.399 208.434 208.754 202.402 206.239L196.789 203.899C194.627 205.721 192.274 207.379 189.74 208.843C187.145 210.341 184.469 211.571 181.744 212.543L180.959 218.619C180.121 225.1 174.602 229.952 168.066 229.952L162.422 229.951C155.83 229.951 150.281 225.017 149.511 218.469L148.794 212.374C143.497 210.435 138.521 207.571 134.132 203.853L128.079 206.378C122.047 208.893 115.086 206.539 111.818 200.879L108.996 195.991C105.7 190.281 107.199 183.008 112.485 179.068L117.698 175.181C116.682 169.352 116.759 163.441 117.851 157.739L112.283 153.486C107.09 149.519 105.649 142.315 108.916 136.656L111.739 131.765C115.035 126.057 122.083 123.718 128.138 126.325L134.866 129.221C136.841 127.618 138.967 126.15 141.24 124.838C143.451 123.561 145.721 122.479 148.031 121.585L148.883 114.347ZM156.24 150.819C147.391 155.928 144.36 167.242 149.468 176.09C154.577 184.939 165.891 187.971 174.74 182.862C183.588 177.753 186.62 166.439 181.511 157.59C176.402 148.742 165.088 145.71 156.24 150.819Z" fill="black"/>
</g>
<defs>
<clipPath id="clip0_0_3">
<rect width="250" height="240" fill="white"/>
</clipPath>
</defs>
</svg>
