<svg width="250" height="240" viewBox="0 0 250 240" fill="none" xmlns="http://www.w3.org/2000/svg">
<rect width="250" height="240" fill="white"/>
<path d="M125 53C191.274 53 245 119.5 245 119.5C245 119.5 191.274 186 125 186C58.7258 186 5 119.5 5 119.5C5 119.5 58.7258 53 125 53ZM125 70C97.3858 70 75 92.3858 75 120C75 147.614 97.3858 170 125 170C152.614 170 175 147.614 175 120C175 92.3858 152.614 70 125 70ZM125.5 88C143.449 88 158 102.551 158 120.5C158 138.449 143.449 153 125.5 153C107.551 153 93 138.449 93 120.5C93 119.054 94.5522 118.2 95.9131 118.688C98.2833 119.537 100.838 120 103.5 120C115.926 120 126 109.926 126 97.5C126 94.6807 125.48 91.9829 124.533 89.4961C124.264 88.7898 124.744 88 125.5 88Z" fill="black"/>
</svg>
